<svg preserveAspectRatio="none" width="100%" height="100%" overflow="visible" style="display: block;" viewBox="0 0 16 16" fill="none" xmlns="http://www.w3.org/2000/svg">
<g id="Icon">
<path d="M5.32123 1.53285C6.74487 0.943154 8.32331 0.839698 9.81175 1.23852L10.0706 0.272597C8.3695 -0.183203 6.56557 -0.0649674 4.93855 0.608966C3.31152 1.2829 1.95235 2.47487 1.07181 4C0.191272 5.52514 -0.161414 7.2982 0.0684523 9.04421C0.298318 10.7902 1.09789 12.4116 2.34316 13.6569C3.58842 14.9021 5.20979 15.7017 6.9558 15.9316C8.70181 16.1614 10.4749 15.8087 12 14.9282C13.5251 14.0477 14.7171 12.6885 15.391 11.0615C16.065 9.43445 16.1832 7.63052 15.7274 5.92945L14.7615 6.18827C15.1603 7.6767 15.0569 9.25515 14.4672 10.6788C13.8775 12.1024 12.8345 13.2917 11.5 14.0622C10.1655 14.8327 8.61408 15.1412 7.08633 14.9401C5.55857 14.739 4.13987 14.0394 3.05026 12.9497C1.96065 11.8601 1.26103 10.4414 1.0599 8.91368C0.858764 7.38593 1.16736 5.83449 1.93783 4.5C2.7083 3.16551 3.89759 2.12254 5.32123 1.53285Z" fill="var(--fill-0, #24242B)"/>
<path d="M13 1.77212e-08V2.29289L7.64648 7.64645L8.35359 8.35355L13.7071 3H16V2H14V1.77212e-08H13Z" fill="var(--fill-0, #24242B)"/>
<path d="M7.29289 7.29292C7.20003 7.38578 7.12638 7.49602 7.07612 7.61735C7.02587 7.73867 7 7.86871 7 8.00003C7 8.13135 7.02587 8.26139 7.07612 8.38271C7.12638 8.50404 7.20003 8.61428 7.29289 8.70714C7.38575 8.79999 7.49599 8.87365 7.61732 8.92391C7.73864 8.97416 7.86868 9.00003 8 9.00003C8.13132 9.00003 8.26136 8.97416 8.38268 8.92391C8.50401 8.87365 8.61425 8.79999 8.70711 8.70714L9.41421 9.41424C9.2285 9.59996 9.00802 9.74728 8.76537 9.84779C8.52272 9.9483 8.26264 10 8 10C7.73736 10 7.47728 9.9483 7.23463 9.84779C6.99198 9.74728 6.7715 9.59996 6.58579 9.41424C6.40007 9.22853 6.25275 9.00805 6.15224 8.7654C6.05173 8.52275 6 8.26267 6 8.00003C6 7.73739 6.05173 7.47731 6.15224 7.23466C6.25275 6.99201 6.40007 6.77153 6.58579 6.58582L7.29289 7.29292Z" fill="var(--fill-0, #24242B)"/>
<path d="M6.46927 4.30448C7.28278 3.96752 8.18475 3.9084 9.03528 4.1363L9.2941 3.17037C8.23094 2.8855 7.10348 2.9594 6.08659 3.3806C5.0697 3.80181 4.22022 4.54679 3.66988 5.5C3.11954 6.45321 2.89912 7.56138 3.04278 8.65263C3.18645 9.74389 3.68618 10.7572 4.46447 11.5355C5.24276 12.3138 6.25612 12.8136 7.34737 12.9572C8.43863 13.1009 9.5468 12.8805 10.5 12.3301C11.4532 11.7798 12.1982 10.9303 12.6194 9.91342C13.0406 8.89653 13.1145 7.76907 12.8296 6.70591L11.8637 6.96473C12.0916 7.81526 12.0325 8.71723 11.6955 9.53074C11.3586 10.3442 10.7626 11.0238 10 11.4641C9.23744 11.9044 8.35091 12.0807 7.4779 11.9658C6.6049 11.8508 5.79421 11.4511 5.17158 10.8284C4.54895 10.2058 4.14916 9.39511 4.03423 8.52211C3.91929 7.6491 4.09564 6.76257 4.53591 6C4.97617 5.23743 5.65576 4.64145 6.46927 4.30448Z" fill="var(--fill-0, #24242B)"/>
</g>
</svg>
