<svg preserveAspectRatio="none" width="100%" height="100%" overflow="visible" style="display: block;" viewBox="0 0 16 16" fill="none" xmlns="http://www.w3.org/2000/svg">
<path id="Icon" fill-rule="evenodd" clip-rule="evenodd" d="M7.10598 0.551174C7.47505 -0.183645 8.52391 -0.183744 8.89313 0.550994L15.895 14.4847C16.2291 15.1498 15.7457 15.9338 15.0014 15.9338L1.0013 15.9338C0.25713 15.9338 -0.226326 15.15 0.107677 14.4849L7.10598 0.551174ZM15.0014 14.9338L7.9996 0.999999L1.0013 14.9338L15.0014 14.9338ZM8.49948 5.93375V10.4338H7.49948V5.93375H8.49948ZM6.99948 12.9338C6.99948 12.3815 7.44719 11.9338 7.99948 11.9338C8.55176 11.9338 8.99948 12.3815 8.99948 12.9338C8.99948 13.486 8.55176 13.9338 7.99948 13.9338C7.44719 13.9338 6.99948 13.486 6.99948 12.9338Z" fill="var(--fill-0, #9B5E0D)"/>
</svg>
