<svg preserveAspectRatio="none" width="100%" height="100%" overflow="visible" style="display: block;" viewBox="0 0 366 46" fill="none" xmlns="http://www.w3.org/2000/svg">
<path id="4" d="M0 23.2459C6.76543 23.2459 6.76543 19.2606 13.5309 19.2606C20.2963 19.2606 20.2963 37.6139 27.0617 37.6139C33.8272 37.6139 33.8272 38.6102 40.5926 38.6102C47.358 38.6102 47.358 0.75 54.1235 0.75C60.8889 0.75 60.8889 37.6139 67.6543 37.6139C74.4198 37.6139 74.4198 30.6397 81.1852 30.6397C87.9506 30.6397 87.9506 37.6139 94.7161 37.6139C101.481 37.6139 101.481 31.636 108.247 31.636C115.012 31.636 115.012 38.6102 121.778 38.6102C128.543 38.6102 128.543 44.75 135.309 44.75C142.074 44.75 142.074 44.75 148.84 44.75C155.605 44.75 155.605 32.6323 162.37 32.6323C169.136 32.6323 169.136 39.6066 175.901 39.6066C182.667 39.6066 182.667 37.6139 189.432 37.6139C196.198 37.6139 196.198 34.6249 202.963 34.6249C209.728 34.6249 209.728 35.6213 216.494 35.6213C223.259 35.6213 223.259 32.6323 230.025 32.6323C236.79 32.6323 236.79 35.6213 243.556 35.6213C250.321 35.6213 250.321 10.7132 257.086 10.7132C263.852 10.7132 263.852 38.6102 270.617 38.6102C277.383 38.6102 277.383 28.647 284.148 28.647C290.914 28.647 290.914 35.6213 297.679 35.6213C304.444 35.6213 304.444 27.6507 311.21 27.6507C317.975 27.6507 317.975 33.6286 324.741 33.6286C331.506 33.6286 331.506 32.6323 338.272 32.6323C345.037 32.6323 345.037 36.6176 351.802 36.6176C358.568 36.6176 358.568 38.6102 365.333 38.6102" stroke="var(--stroke-0, #3F51B5)" stroke-width="1.5"/>
</svg>
