<svg preserveAspectRatio="none" width="100%" height="100%" overflow="visible" style="display: block;" viewBox="0 0 14 16" fill="none" xmlns="http://www.w3.org/2000/svg">
<path id="Icon" fill-rule="evenodd" clip-rule="evenodd" d="M4.51227 0.0480379C4.99723 -0.0484251 5.49989 0.00108322 5.95671 0.190302C6.37152 0.362123 6.73161 0.642135 7 1C7.26839 0.642135 7.62848 0.362123 8.04329 0.190302C8.50011 0.00108316 9.00277 -0.0484251 9.48773 0.048038C9.97268 0.144501 10.4181 0.382603 10.7678 0.732234C11.1174 1.08187 11.3555 1.52732 11.452 2.01228C11.5484 2.49723 11.4989 2.99989 11.3097 3.45671C11.2292 3.65109 11.1249 3.83346 11 4H12.5C13.3284 4 14 4.67157 14 5.5V7.5C14 8.15311 13.5826 8.70873 13 8.91465V13.5C13 14.8807 11.8807 16 10.5 16H3.5C2.11929 16 1 14.8807 1 13.5L1 8.91465C0.417404 8.70873 0 8.15311 0 7.5V5.5C0 4.67157 0.671573 4 1.5 4H3C2.87509 3.83346 2.77082 3.65109 2.6903 3.45671C2.50108 2.99989 2.45157 2.49723 2.54804 2.01228C2.6445 1.52732 2.8826 1.08187 3.23223 0.732234C3.58186 0.382603 4.02732 0.144501 4.51227 0.0480379ZM1.5 5C1.22386 5 1 5.22386 1 5.5V7.5C1 7.77614 1.22386 8 1.5 8H6.5V5H1.5ZM2 9V13.5C2 14.3284 2.67157 15 3.5 15H6.5V9H2ZM5 4C4.70333 4 4.41332 3.91203 4.16664 3.74721C3.91997 3.58238 3.72771 3.34812 3.61418 3.07403C3.50065 2.79994 3.47094 2.49834 3.52882 2.20737C3.5867 1.91639 3.72956 1.64912 3.93934 1.43934C4.14912 1.22956 4.41639 1.0867 4.70736 1.02882C4.99834 0.970945 5.29994 1.00065 5.57403 1.11418C5.84811 1.22771 6.08238 1.41997 6.2472 1.66665C6.41203 1.91332 6.5 2.20333 6.5 2.5V4H5ZM7.5 2.5V4H9C9.29667 4 9.58668 3.91203 9.83335 3.74721C10.08 3.58238 10.2723 3.34812 10.3858 3.07403C10.4994 2.79994 10.5291 2.49834 10.4712 2.20737C10.4133 1.91639 10.2704 1.64912 10.0607 1.43934C9.85088 1.22956 9.58361 1.0867 9.29263 1.02882C9.00166 0.970945 8.70007 1.00065 8.42598 1.11418C8.15189 1.22771 7.91762 1.41997 7.7528 1.66665C7.58797 1.91332 7.5 2.20333 7.5 2.5ZM7.5 5V8H12.5C12.7761 8 13 7.77614 13 7.5V5.5C13 5.22386 12.7761 5 12.5 5H7.5ZM12 9H7.5V15H10.5C11.3284 15 12 14.3284 12 13.5V9Z" fill="var(--fill-0, #24242B)"/>
</svg>
