<svg preserveAspectRatio="none" width="100%" height="100%" overflow="visible" style="display: block;" viewBox="0 0 15 15" fill="none" xmlns="http://www.w3.org/2000/svg">
<g id="Icon">
<path d="M12 0.5C12 0.223858 12.2239 0 12.5 0C12.7761 0 13 0.223858 13 0.5V2H14.5C14.7761 2 15 2.22386 15 2.5C15 2.77614 14.7761 3 14.5 3H13V4.5C13 4.77614 12.7761 5 12.5 5C12.2239 5 12 4.77614 12 4.5V3H10.5C10.2239 3 10 2.77614 10 2.5C10 2.22386 10.2239 2 10.5 2H12V0.5Z" fill="var(--fill-0, #DA2828)"/>
<path d="M9 2C8.47599 2 7.95575 2.10298 7.46927 2.30448C6.86154 2.55621 6.32527 2.95394 5.90796 3.46243C5.49065 3.97092 5.20519 4.57448 5.07686 5.21964C4.94853 5.8648 4.98129 6.53166 5.17224 7.16114L5.17713 7.17713L5.16114 7.17224C4.53166 6.98129 3.8648 6.94853 3.21964 7.07686C2.57448 7.20519 1.97092 7.49065 1.46243 7.90796C0.953938 8.32527 0.556213 8.86154 0.304483 9.46927C0.0527522 10.077 -0.045214 10.7374 0.0192621 11.3921C0.0837382 12.0467 0.308666 12.6753 0.674123 13.2223C1.03958 13.7692 1.53428 14.2176 2.11441 14.5277C2.69455 14.8378 3.3422 15 4 15H13V6H12V14H4C3.50665 14 3.02091 13.8783 2.58581 13.6458C2.15071 13.4132 1.77968 13.0769 1.50559 12.6667C1.2315 12.2565 1.0628 11.785 1.01445 11.2941C0.96609 10.8031 1.03956 10.3077 1.22836 9.85195C1.41716 9.39615 1.71545 8.99395 2.09682 8.68097C2.47819 8.36799 2.93086 8.15389 3.41473 8.05765C3.8986 7.9614 4.39875 7.98597 4.87085 8.12918C5.33324 8.26944 5.75476 8.51928 6.09967 8.85725C6.30708 9.06048 6.64341 9.06369 6.85355 8.85356C7.06369 8.64342 7.06049 8.30708 6.85725 8.09967C6.51928 7.75476 6.26944 7.33324 6.12918 6.87085C5.98597 6.39875 5.9614 5.8986 6.05765 5.41473C6.15389 4.93086 6.36799 4.47819 6.68097 4.09682C6.99395 3.71545 7.39615 3.41716 7.85195 3.22836C8.21681 3.07723 8.60699 3 9 3V2Z" fill="var(--fill-0, #DA2828)"/>
</g>
</svg>
