<svg preserveAspectRatio="none" width="100%" height="100%" overflow="visible" style="display: block;" viewBox="0 0 16 16" fill="none" xmlns="http://www.w3.org/2000/svg">
<path id="Icon" fill-rule="evenodd" clip-rule="evenodd" d="M5.54902 0.752258C5.6622 0.309634 6.06098 0 6.51784 0H8.73924C9.19809 0 9.59806 0.312279 9.70937 0.757428L10.1583 2.5527L10.1603 2.55559C10.1631 2.55887 10.1685 2.56364 10.177 2.56762C10.486 2.71251 10.7821 2.88351 11.062 3.07874C11.0696 3.08407 11.0764 3.08636 11.0806 3.08715L11.0841 3.0875L12.8565 2.59076C13.2964 2.46746 13.764 2.658 13.9924 3.05365L15.1031 4.97744C15.3325 5.37482 15.2621 5.87735 14.9322 6.19631L13.6019 7.4827L13.6004 7.48593C13.599 7.48998 13.5976 7.49705 13.5984 7.5064C13.6272 7.84474 13.6273 8.18492 13.5987 8.52327C13.5979 8.53273 13.5993 8.53989 13.6008 8.544L13.6023 8.54726L14.9234 9.80041C15.2589 10.1187 15.3324 10.6254 15.1012 11.0259L13.9904 12.9498C13.7638 13.3423 13.3016 13.5333 12.864 13.4154L11.0362 12.9226L11.0328 12.9229C11.0287 12.9237 11.0221 12.9259 11.0146 12.9311C10.7342 13.1234 10.438 13.2916 10.1292 13.4337C10.1204 13.4378 10.1148 13.4428 10.1119 13.4462C10.1106 13.4478 10.1098 13.4492 10.1098 13.4492L9.70574 15.2222C9.60205 15.6772 9.19741 16 8.73073 16L6.51379 16C6.06061 16 5.66409 15.6952 5.54747 15.2573L5.06031 13.4279L5.0583 13.4251C5.0556 13.422 5.05038 13.4174 5.04216 13.4134C4.73541 13.2668 4.44168 13.0944 4.16416 12.8981C4.15622 12.8925 4.1491 12.8901 4.14467 12.8893C4.14267 12.8889 4.14099 12.889 4.14099 12.889L2.40357 13.4255C1.95766 13.5633 1.4758 13.3742 1.24246 12.9701L0.133996 11.0501C-0.0925913 10.6577 -0.0269296 10.1619 0.29401 9.84195L1.63473 8.50536L1.63613 8.50222C1.63751 8.49831 1.6389 8.49149 1.63819 8.4824C1.61165 8.14173 1.61426 7.79942 1.64599 7.45921C1.64688 7.4497 1.64545 7.44248 1.64398 7.43833L1.64248 7.43504L0.313547 6.16544C-0.0198649 5.84692 -0.0922529 5.34171 0.138302 4.94238L1.24671 3.02256C1.47614 2.62518 1.94656 2.43493 2.38773 2.56112L4.16693 3.07C4.16693 3.07 4.16871 3.07001 4.17086 3.06959C4.17514 3.06874 4.18179 3.0664 4.18922 3.06122C4.24478 3.0225 4.30098 2.98472 4.35779 2.94792C4.58724 2.79927 4.82664 2.66644 5.07435 2.55037C5.08279 2.54642 5.08816 2.54169 5.09094 2.53845L5.09299 2.53559L5.54902 0.752258ZM8.73924 1H6.51784L6.06172 2.78372C5.9827 3.09274 5.7653 3.33096 5.49864 3.4559C5.29222 3.55262 5.09271 3.66331 4.90151 3.78719C4.85417 3.81786 4.80734 3.84933 4.76103 3.88161C4.64273 3.96407 4.50813 4.02214 4.3656 4.05044C4.21315 4.08071 4.05099 4.07694 3.89231 4.03156L2.11273 3.52256L1.00433 5.44238L2.33354 6.71225C2.56939 6.93756 2.66962 7.25239 2.64167 7.55207C2.61523 7.83558 2.61305 8.12084 2.63517 8.40473C2.65757 8.69231 2.56219 8.99279 2.34102 9.21328L1.00002 10.5501L2.10848 12.4701L3.84628 11.9334C4.16305 11.8356 4.49206 11.9051 4.74172 12.0817C4.97299 12.2454 5.21776 12.389 5.47338 12.5112C5.73364 12.6356 5.94617 12.8684 6.02654 13.1702L6.5138 15L8.73073 15L9.13484 13.2267C9.2085 12.9034 9.43324 12.6533 9.71103 12.5254C9.96837 12.4069 10.2152 12.2668 10.4488 12.1065C10.6867 11.9433 10.9946 11.8756 11.2961 11.9569L13.1244 12.4498L14.2352 10.5259L12.9138 9.27249C12.6785 9.0493 12.5769 8.73705 12.6022 8.43881C12.6261 8.15685 12.6261 7.87336 12.602 7.59141C12.5768 7.29628 12.6758 6.98715 12.9065 6.7641L14.2371 5.47744L13.1264 3.55365L11.3536 4.0505C11.0465 4.13658 10.7315 4.06741 10.4899 3.89895C10.2567 3.73626 10.0099 3.59376 9.75244 3.47302C9.48426 3.34726 9.26606 3.10695 9.18822 2.79566L8.73924 1ZM7.62976 6C6.52519 6 5.62976 6.89543 5.62976 8C5.62976 9.10457 6.52519 10 7.62976 10C8.73433 10 9.62976 9.10457 9.62976 8C9.62976 6.89543 8.73433 6 7.62976 6ZM4.62976 8C4.62976 6.34315 5.9729 5 7.62976 5C9.28661 5 10.6298 6.34315 10.6298 8C10.6298 9.65685 9.28661 11 7.62976 11C5.9729 11 4.62976 9.65685 4.62976 8Z" fill="var(--fill-0, #24242B)"/>
</svg>
