<svg preserveAspectRatio="none" width="100%" height="100%" overflow="visible" style="display: block;" viewBox="0 0 15 16" fill="none" xmlns="http://www.w3.org/2000/svg">
<path id="Icon" fill-rule="evenodd" clip-rule="evenodd" d="M3.25736 1.75736C4.38258 0.632141 5.9087 0 7.5 0C9.0913 0 10.6174 0.632141 11.7426 1.75736C12.8679 2.88258 13.5 4.4087 13.5 6V8.58579C13.5 8.71839 13.5527 8.84557 13.6464 8.93934L14.5607 9.85355C14.842 10.1349 15 10.5164 15 10.9142V11.5C15 12.3284 14.3284 13 13.5 13H1.5C0.671574 13 0 12.3284 0 11.5V10.9142C0 10.5164 0.158035 10.1349 0.43934 9.85355L1.35355 8.93934C1.44732 8.84557 1.5 8.71839 1.5 8.58579V6C1.5 4.4087 2.13214 2.88258 3.25736 1.75736ZM7.5 1C6.17392 1 4.90215 1.52678 3.96447 2.46447C3.02678 3.40215 2.5 4.67392 2.5 6V8.58579C2.5 8.98361 2.34196 9.36514 2.06066 9.64645L1.14645 10.5607C1.05268 10.6544 1 10.7816 1 10.9142V11.5C1 11.7761 1.22386 12 1.5 12H13.5C13.7761 12 14 11.7761 14 11.5V10.9142C14 10.7816 13.9473 10.6544 13.8536 10.5607L12.9393 9.64645C12.658 9.36514 12.5 8.98361 12.5 8.58579V6C12.5 4.67392 11.9732 3.40215 11.0355 2.46447C10.0979 1.52678 8.82608 1 7.5 1ZM6.5 14C6.5 14.2652 6.60536 14.5196 6.79289 14.7071C6.98043 14.8946 7.23478 15 7.5 15C7.76522 15 8.01957 14.8946 8.20711 14.7071C8.39464 14.5196 8.5 14.2652 8.5 14H9.5C9.5 14.5304 9.28929 15.0391 8.91421 15.4142C8.53914 15.7893 8.03043 16 7.5 16C6.96957 16 6.46086 15.7893 6.08579 15.4142C5.71071 15.0391 5.5 14.5304 5.5 14H6.5Z" fill="var(--fill-0, #003BEB)"/>
</svg>
