<svg preserveAspectRatio="none" width="100%" height="100%" overflow="visible" style="display: block;" viewBox="0 0 36 36" fill="none" xmlns="http://www.w3.org/2000/svg">
<g id="Logo">
<path id="Vector" d="M11.4393 12.5617C8.44682 12.5617 6 15.0085 6 18.0011C6 20.9936 8.44682 23.4404 11.4393 23.4404H12.5612V12.5617H11.4393Z" fill="var(--fill-0, #69BAE8)"/>
<path id="Vector_2" d="M24.5618 12.5617H23.44V23.4404H24.5618C27.5544 23.4404 30.0012 20.9936 30.0012 18.0011C30.0012 15.0085 27.5544 12.5617 24.5618 12.5617Z" fill="var(--fill-0, #485DAA)"/>
<path id="Vector_3" d="M23.4398 11.4393C23.4398 8.44682 20.993 6 18.0005 6C15.008 6 12.5612 8.44682 12.5612 11.4393V12.5612H23.4398V11.4393Z" fill="var(--fill-0, #69BAE8)"/>
<path id="Vector_4" d="M12.7285 25.8685C13.3199 28.2315 15.4596 30.0006 18.0004 30.0006C20.9929 30.0006 23.4397 27.5538 23.4397 24.5613V23.4394H15.1576L12.7285 25.8685Z" fill="var(--fill-0, #485DAA)"/>
<path id="Vector_5" d="M12.5612 12.5617V23.4404V24.5623C12.5612 25.0141 12.6221 25.4506 12.7287 25.8694L15.1577 23.4404H23.4398V12.5617H12.5612Z" fill="var(--fill-0, #003A5D)"/>
</g>
</svg>
