<svg preserveAspectRatio="none" width="100%" height="100%" overflow="visible" style="display: block;" viewBox="0 0 15 14" fill="none" xmlns="http://www.w3.org/2000/svg">
<path id="Icon" fill-rule="evenodd" clip-rule="evenodd" d="M0 2.5C0 1.11929 1.11929 0 2.5 0H3.5C4.88071 0 6 1.11929 6 2.5V11.5C6 12.8807 4.88071 14 3.5 14H2.5C1.11929 14 0 12.8807 0 11.5V2.5ZM2.5 1C1.67157 1 1 1.67157 1 2.5V11.5C1 12.3284 1.67157 13 2.5 13H3.5C4.32843 13 5 12.3284 5 11.5V2.5C5 1.67157 4.32843 1 3.5 1H2.5ZM11.3536 3.64645L14.7071 7L11.3536 10.3536L10.6464 9.64645L12.7929 7.5H8V6.5H12.7929L10.6464 4.35355L11.3536 3.64645Z" fill="var(--fill-0, #24242B)"/>
</svg>
